<?xml version="1.0" encoding="UTF-8" standalone="no"?>
<!DOCTYPE svg PUBLIC "-//W3C//DTD SVG 1.1//EN"
 "http://www.w3.org/Graphics/SVG/1.1/DTD/svg11.dtd">
<!-- Generated by graphviz version 2.43.0 (0)
 -->
<!-- Title: LangGraphRagSystem Pages: 1 -->
<svg width="958pt" height="1134pt"
 viewBox="0.00 0.00 958.00 1133.91" xmlns="http://www.w3.org/2000/svg" xmlns:xlink="http://www.w3.org/1999/xlink">
<g id="graph0" class="graph" transform="scale(1 1) rotate(0) translate(4 1129.91)">
<title>LangGraphRagSystem</title>
<polygon fill="white" stroke="transparent" points="-4,4 -4,-1129.91 954,-1129.91 954,4 -4,4"/>
<text text-anchor="middle" x="475" y="-1105.91" font-family="Helvetica,sans-Serif" font-size="20.00">LangGraph RAG System: Corpus&#45;first documentation runtime with optional web augmentation</text>
<!-- start -->
<g id="node1" class="node">
<title>start</title>
<ellipse fill="#f8fafc" stroke="#475569" stroke-width="1.4" cx="412" cy="-990.91" rx="52.99" ry="18"/>
<text text-anchor="middle" x="412" y="-988.11" font-family="Helvetica,sans-Serif" font-size="11.00">User query</text>
</g>
<!-- rewrite -->
<g id="node2" class="node">
<title>rewrite</title>
<path fill="#eef4ff" stroke="#335c9c" stroke-width="1.4" d="M469,-921.91C469,-921.91 355,-921.91 355,-921.91 349,-921.91 343,-915.91 343,-909.91 343,-909.91 343,-897.91 343,-897.91 343,-891.91 349,-885.91 355,-885.91 355,-885.91 469,-885.91 469,-885.91 475,-885.91 481,-891.91 481,-897.91 481,-897.91 481,-909.91 481,-909.91 481,-915.91 475,-921.91 469,-921.91"/>
<text text-anchor="middle" x="412" y="-907.11" font-family="Helvetica,sans-Serif" font-size="11.00">rewrite</text>
<text text-anchor="middle" x="412" y="-895.11" font-family="Helvetica,sans-Serif" font-size="11.00">ConversationRewriter</text>
</g>
<!-- start&#45;&gt;rewrite -->
<g id="edge1" class="edge">
<title>start&#45;&gt;rewrite</title>
<path fill="none" stroke="#334155" stroke-width="1.3" d="M412,-972.71C412,-960.5 412,-943.9 412,-930.19"/>
<polygon fill="#334155" stroke="#334155" stroke-width="1.3" points="414.8,-930.09 412,-922.09 409.2,-930.09 414.8,-930.09"/>
</g>
<!-- retrieve -->
<g id="node3" class="node">
<title>retrieve</title>
<path fill="#eef4ff" stroke="#335c9c" stroke-width="1.4" d="M419.5,-834.91C419.5,-834.91 296.5,-834.91 296.5,-834.91 290.5,-834.91 284.5,-828.91 284.5,-822.91 284.5,-822.91 284.5,-810.91 284.5,-810.91 284.5,-804.91 290.5,-798.91 296.5,-798.91 296.5,-798.91 419.5,-798.91 419.5,-798.91 425.5,-798.91 431.5,-804.91 431.5,-810.91 431.5,-810.91 431.5,-822.91 431.5,-822.91 431.5,-828.91 425.5,-834.91 419.5,-834.91"/>
<text text-anchor="middle" x="358" y="-820.11" font-family="Helvetica,sans-Serif" font-size="11.00">retrieve</text>
<text text-anchor="middle" x="358" y="-808.11" font-family="Helvetica,sans-Serif" font-size="11.00">Hybrid corpus retriever</text>
</g>
<!-- rewrite&#45;&gt;retrieve -->
<g id="edge2" class="edge">
<title>rewrite&#45;&gt;retrieve</title>
<path fill="none" stroke="#334155" stroke-width="1.3" d="M401.07,-885.71C393.09,-873.15 382.17,-855.96 373.32,-842.03"/>
<polygon fill="#334155" stroke="#334155" stroke-width="1.3" points="375.56,-840.34 368.91,-835.09 370.84,-843.34 375.56,-840.34"/>
</g>
<!-- rerank -->
<g id="node4" class="node">
<title>rerank</title>
<path fill="#eef4ff" stroke="#335c9c" stroke-width="1.4" d="M816,-834.91C816,-834.91 740,-834.91 740,-834.91 734,-834.91 728,-828.91 728,-822.91 728,-822.91 728,-810.91 728,-810.91 728,-804.91 734,-798.91 740,-798.91 740,-798.91 816,-798.91 816,-798.91 822,-798.91 828,-804.91 828,-810.91 828,-810.91 828,-822.91 828,-822.91 828,-828.91 822,-834.91 816,-834.91"/>
<text text-anchor="middle" x="778" y="-820.11" font-family="Helvetica,sans-Serif" font-size="11.00">rerank</text>
<text text-anchor="middle" x="778" y="-808.11" font-family="Helvetica,sans-Serif" font-size="11.00">Qwen reranker</text>
</g>
<!-- retrieve&#45;&gt;rerank -->
<g id="edge3" class="edge">
<title>retrieve&#45;&gt;rerank</title>
<path fill="none" stroke="#334155" stroke-width="1.3" d="M392.26,-834.97C412.52,-844.61 439.02,-855.49 464,-860.41 561.67,-879.67 590.96,-882.63 688,-860.41 706.78,-856.11 726.19,-847.36 742.16,-838.83"/>
<polygon fill="#334155" stroke="#334155" stroke-width="1.3" points="743.58,-841.25 749.24,-834.94 740.88,-836.34 743.58,-841.25"/>
</g>
<!-- decide_web -->
<g id="node5" class="node">
<title>decide_web</title>
<path fill="#eef4ff" stroke="#335c9c" stroke-width="1.4" d="M618,-834.91C618,-834.91 476,-834.91 476,-834.91 470,-834.91 464,-828.91 464,-822.91 464,-822.91 464,-810.91 464,-810.91 464,-804.91 470,-798.91 476,-798.91 476,-798.91 618,-798.91 618,-798.91 624,-798.91 630,-804.91 630,-810.91 630,-810.91 630,-822.91 630,-822.91 630,-828.91 624,-834.91 618,-834.91"/>
<text text-anchor="middle" x="547" y="-820.11" font-family="Helvetica,sans-Serif" font-size="11.00">decide_web</text>
<text text-anchor="middle" x="547" y="-808.11" font-family="Helvetica,sans-Serif" font-size="11.00">confidence + recency gate</text>
</g>
<!-- rerank&#45;&gt;decide_web -->
<g id="edge4" class="edge">
<title>rerank&#45;&gt;decide_web</title>
<path fill="none" stroke="#334155" stroke-width="1.3" d="M728,-816.91C698.02,-816.91 668.03,-816.91 638.05,-816.91"/>
<polygon fill="#334155" stroke="#334155" stroke-width="1.3" points="638.02,-814.11 630.02,-816.91 638.02,-819.71 638.02,-814.11"/>
</g>
<!-- web_retrieve -->
<g id="node6" class="node">
<title>web_retrieve</title>
<path fill="#fff7ed" stroke="#c2410c" stroke-width="1.4" d="M742.5,-726.91C742.5,-726.91 599.5,-726.91 599.5,-726.91 593.5,-726.91 587.5,-720.91 587.5,-714.91 587.5,-714.91 587.5,-702.91 587.5,-702.91 587.5,-696.91 593.5,-690.91 599.5,-690.91 599.5,-690.91 742.5,-690.91 742.5,-690.91 748.5,-690.91 754.5,-696.91 754.5,-702.91 754.5,-702.91 754.5,-714.91 754.5,-714.91 754.5,-720.91 748.5,-726.91 742.5,-726.91"/>
<text text-anchor="middle" x="671" y="-712.11" font-family="Helvetica,sans-Serif" font-size="11.00">web_retrieve</text>
<text text-anchor="middle" x="671" y="-700.11" font-family="Helvetica,sans-Serif" font-size="11.00">domain&#45;limited web search</text>
</g>
<!-- decide_web&#45;&gt;web_retrieve -->
<g id="edge6" class="edge">
<title>decide_web&#45;&gt;web_retrieve</title>
<path fill="none" stroke="#c2410c" stroke-width="1.3" stroke-dasharray="5,2" d="M552.62,-798.76C557.99,-784.65 567.31,-764.91 581,-751.91 590.03,-743.34 601.12,-736.26 612.39,-730.52"/>
<polygon fill="#c2410c" stroke="#c2410c" stroke-width="1.3" points="613.82,-732.94 619.81,-726.94 611.39,-727.9 613.82,-732.94"/>
<text text-anchor="middle" x="617.5" y="-765.91" font-family="Helvetica,sans-Serif" font-size="10.00">recency or</text>
<text text-anchor="middle" x="617.5" y="-754.91" font-family="Helvetica,sans-Serif" font-size="10.00">low confidence</text>
</g>
<!-- finalize -->
<g id="node8" class="node">
<title>finalize</title>
<path fill="#eef4ff" stroke="#335c9c" stroke-width="1.4" d="M592.5,-531.91C592.5,-531.91 505.5,-531.91 505.5,-531.91 499.5,-531.91 493.5,-525.91 493.5,-519.91 493.5,-519.91 493.5,-507.91 493.5,-507.91 493.5,-501.91 499.5,-495.91 505.5,-495.91 505.5,-495.91 592.5,-495.91 592.5,-495.91 598.5,-495.91 604.5,-501.91 604.5,-507.91 604.5,-507.91 604.5,-519.91 604.5,-519.91 604.5,-525.91 598.5,-531.91 592.5,-531.91"/>
<text text-anchor="middle" x="549" y="-511.11" font-family="Helvetica,sans-Serif" font-size="11.00">finalize_contexts</text>
</g>
<!-- decide_web&#45;&gt;finalize -->
<g id="edge5" class="edge">
<title>decide_web&#45;&gt;finalize</title>
<path fill="none" stroke="#334155" stroke-width="1.3" d="M547.11,-798.87C547.45,-748.49 548.43,-600.08 548.83,-540.3"/>
<polygon fill="#334155" stroke="#334155" stroke-width="1.3" points="551.63,-540.16 548.89,-532.14 546.03,-540.12 551.63,-540.16"/>
<text text-anchor="middle" x="589.5" y="-657.91" font-family="Helvetica,sans-Serif" font-size="10.00">corpus confident</text>
<text text-anchor="middle" x="589.5" y="-646.91" font-family="Helvetica,sans-Serif" font-size="10.00">or web off</text>
</g>
<!-- merge_contexts -->
<g id="node7" class="node">
<title>merge_contexts</title>
<path fill="#fff7ed" stroke="#c2410c" stroke-width="1.4" d="M739,-618.91C739,-618.91 603,-618.91 603,-618.91 597,-618.91 591,-612.91 591,-606.91 591,-606.91 591,-594.91 591,-594.91 591,-588.91 597,-582.91 603,-582.91 603,-582.91 739,-582.91 739,-582.91 745,-582.91 751,-588.91 751,-594.91 751,-594.91 751,-606.91 751,-606.91 751,-612.91 745,-618.91 739,-618.91"/>
<text text-anchor="middle" x="671" y="-604.11" font-family="Helvetica,sans-Serif" font-size="11.00">merge_contexts</text>
<text text-anchor="middle" x="671" y="-592.11" font-family="Helvetica,sans-Serif" font-size="11.00">corpus + web final rerank</text>
</g>
<!-- web_retrieve&#45;&gt;merge_contexts -->
<g id="edge7" class="edge">
<title>web_retrieve&#45;&gt;merge_contexts</title>
<path fill="none" stroke="#c2410c" stroke-width="1.3" stroke-dasharray="5,2" d="M671,-690.88C671,-673.75 671,-647.13 671,-627.47"/>
<polygon fill="#c2410c" stroke="#c2410c" stroke-width="1.3" points="673.8,-627.25 671,-619.25 668.2,-627.25 673.8,-627.25"/>
</g>
<!-- merge_contexts&#45;&gt;finalize -->
<g id="edge8" class="edge">
<title>merge_contexts&#45;&gt;finalize</title>
<path fill="none" stroke="#c2410c" stroke-width="1.3" stroke-dasharray="5,2" d="M646.31,-582.71C627.29,-569.46 600.88,-551.05 580.36,-536.76"/>
<polygon fill="#c2410c" stroke="#c2410c" stroke-width="1.3" points="581.82,-534.36 573.65,-532.09 578.62,-538.96 581.82,-534.36"/>
</g>
<!-- abstain_gate -->
<g id="node9" class="node">
<title>abstain_gate</title>
<path fill="#fefce8" stroke="#a16207" stroke-width="1.4" d="M537.57,-441.27C537.57,-441.27 447.43,-412.55 447.43,-412.55 441.72,-410.73 441.72,-407.09 447.43,-405.27 447.43,-405.27 537.57,-376.55 537.57,-376.55 543.28,-374.73 554.72,-374.73 560.43,-376.55 560.43,-376.55 650.57,-405.27 650.57,-405.27 656.28,-407.09 656.28,-410.73 650.57,-412.55 650.57,-412.55 560.43,-441.27 560.43,-441.27 554.72,-443.09 543.28,-443.09 537.57,-441.27"/>
<text text-anchor="middle" x="549" y="-412.11" font-family="Helvetica,sans-Serif" font-size="11.00">abstain_gate</text>
<text text-anchor="middle" x="549" y="-400.11" font-family="Helvetica,sans-Serif" font-size="11.00">confidence check</text>
</g>
<!-- finalize&#45;&gt;abstain_gate -->
<g id="edge9" class="edge">
<title>finalize&#45;&gt;abstain_gate</title>
<path fill="none" stroke="#334155" stroke-width="1.3" d="M549,-495.9C549,-484.33 549,-468.46 549,-453.51"/>
<polygon fill="#334155" stroke="#334155" stroke-width="1.3" points="551.8,-453.32 549,-445.32 546.2,-453.32 551.8,-453.32"/>
</g>
<!-- abstain -->
<g id="node10" class="node">
<title>abstain</title>
<path fill="#eef4ff" stroke="#335c9c" stroke-width="1.4" d="M594.5,-311.91C594.5,-311.91 503.5,-311.91 503.5,-311.91 497.5,-311.91 491.5,-305.91 491.5,-299.91 491.5,-299.91 491.5,-287.91 491.5,-287.91 491.5,-281.91 497.5,-275.91 503.5,-275.91 503.5,-275.91 594.5,-275.91 594.5,-275.91 600.5,-275.91 606.5,-281.91 606.5,-287.91 606.5,-287.91 606.5,-299.91 606.5,-299.91 606.5,-305.91 600.5,-311.91 594.5,-311.91"/>
<text text-anchor="middle" x="549" y="-291.11" font-family="Helvetica,sans-Serif" font-size="11.00">abstain_response</text>
</g>
<!-- abstain_gate&#45;&gt;abstain -->
<g id="edge11" class="edge">
<title>abstain_gate&#45;&gt;abstain</title>
<path fill="none" stroke="#334155" stroke-width="1.3" stroke-dasharray="1,5" d="M549,-372.78C549,-355.72 549,-335.62 549,-320.11"/>
<polygon fill="#334155" stroke="#334155" stroke-width="1.3" points="551.8,-320.02 549,-312.02 546.2,-320.02 551.8,-320.02"/>
<text text-anchor="middle" x="567.5" y="-339.91" font-family="Helvetica,sans-Serif" font-size="10.00">abstain</text>
</g>
<!-- generate -->
<g id="node11" class="node">
<title>generate</title>
<path fill="#eef4ff" stroke="#335c9c" stroke-width="1.4" d="M735,-311.91C735,-311.91 651,-311.91 651,-311.91 645,-311.91 639,-305.91 639,-299.91 639,-299.91 639,-287.91 639,-287.91 639,-281.91 645,-275.91 651,-275.91 651,-275.91 735,-275.91 735,-275.91 741,-275.91 747,-281.91 747,-287.91 747,-287.91 747,-299.91 747,-299.91 747,-305.91 741,-311.91 735,-311.91"/>
<text text-anchor="middle" x="693" y="-297.11" font-family="Helvetica,sans-Serif" font-size="11.00">generate</text>
<text text-anchor="middle" x="693" y="-285.11" font-family="Helvetica,sans-Serif" font-size="11.00">Qwen generator</text>
</g>
<!-- abstain_gate&#45;&gt;generate -->
<g id="edge10" class="edge">
<title>abstain_gate&#45;&gt;generate</title>
<path fill="none" stroke="#334155" stroke-width="1.3" d="M580.96,-382.83C605.95,-363.22 640.38,-336.2 664.46,-317.31"/>
<polygon fill="#334155" stroke="#334155" stroke-width="1.3" points="666.39,-319.35 670.96,-312.21 662.94,-314.94 666.39,-319.35"/>
<text text-anchor="middle" x="657" y="-339.91" font-family="Helvetica,sans-Serif" font-size="10.00">answer</text>
</g>
<!-- ground -->
<g id="node12" class="node">
<title>ground</title>
<path fill="#eef4ff" stroke="#335c9c" stroke-width="1.4" d="M662,-224.91C662,-224.91 578,-224.91 578,-224.91 572,-224.91 566,-218.91 566,-212.91 566,-212.91 566,-200.91 566,-200.91 566,-194.91 572,-188.91 578,-188.91 578,-188.91 662,-188.91 662,-188.91 668,-188.91 674,-194.91 674,-200.91 674,-200.91 674,-212.91 674,-212.91 674,-218.91 668,-224.91 662,-224.91"/>
<text text-anchor="middle" x="620" y="-210.11" font-family="Helvetica,sans-Serif" font-size="11.00">ground</text>
<text text-anchor="middle" x="620" y="-198.11" font-family="Helvetica,sans-Serif" font-size="11.00">GroundingGuard</text>
</g>
<!-- abstain&#45;&gt;ground -->
<g id="edge14" class="edge">
<title>abstain&#45;&gt;ground</title>
<path fill="none" stroke="#334155" stroke-width="1.3" d="M563.37,-275.71C574.05,-262.92 588.75,-245.33 600.49,-231.27"/>
<polygon fill="#334155" stroke="#334155" stroke-width="1.3" points="602.67,-233.02 605.65,-225.09 598.38,-229.43 602.67,-233.02"/>
</g>
<!-- generate&#45;&gt;ground -->
<g id="edge12" class="edge">
<title>generate&#45;&gt;ground</title>
<path fill="none" stroke="#334155" stroke-width="1.3" d="M678.23,-275.71C667.24,-262.92 652.13,-245.33 640.06,-231.27"/>
<polygon fill="#334155" stroke="#334155" stroke-width="1.3" points="642.09,-229.33 634.75,-225.09 637.84,-232.98 642.09,-229.33"/>
</g>
<!-- answer -->
<g id="node13" class="node">
<title>answer</title>
<ellipse fill="#f8fafc" stroke="#475569" stroke-width="1.4" cx="620" cy="-112.46" rx="61.54" ry="25.41"/>
<text text-anchor="middle" x="620" y="-115.66" font-family="Helvetica,sans-Serif" font-size="11.00">Final answer</text>
<text text-anchor="middle" x="620" y="-103.66" font-family="Helvetica,sans-Serif" font-size="11.00">+ citations</text>
</g>
<!-- ground&#45;&gt;answer -->
<g id="edge13" class="edge">
<title>ground&#45;&gt;answer</title>
<path fill="none" stroke="#334155" stroke-width="1.3" d="M620,-188.52C620,-176.63 620,-160.49 620,-146.23"/>
<polygon fill="#334155" stroke="#334155" stroke-width="1.3" points="622.8,-146.1 620,-138.1 617.2,-146.1 622.8,-146.1"/>
</g>
<!-- eval -->
<g id="node22" class="node">
<title>eval</title>
<path fill="#f1f5f9" stroke="#475569" stroke-width="1.4" d="M772,-36C772,-36 602,-36 602,-36 596,-36 590,-30 590,-24 590,-24 590,-12 590,-12 590,-6 596,0 602,0 602,0 772,0 772,0 778,0 784,-6 784,-12 784,-12 784,-24 784,-24 784,-30 778,-36 772,-36"/>
<text text-anchor="middle" x="687" y="-21.2" font-family="Helvetica,sans-Serif" font-size="11.00">eval/run_eval.py</text>
<text text-anchor="middle" x="687" y="-9.2" font-family="Helvetica,sans-Serif" font-size="11.00">corpus_only vs web_augmented</text>
</g>
<!-- answer&#45;&gt;eval -->
<g id="edge23" class="edge">
<title>answer&#45;&gt;eval</title>
<path fill="none" stroke="#64748b" stroke-width="1.3" stroke-dasharray="1,5" d="M637.25,-87.65C647.23,-73.89 659.73,-56.63 669.71,-42.86"/>
<polygon fill="#64748b" stroke="#64748b" stroke-width="1.3" points="672.24,-44.14 674.67,-36.02 667.71,-40.85 672.24,-44.14"/>
</g>
<!-- pages -->
<g id="node14" class="node">
<title>pages</title>
<path fill="#ecfdf5" stroke="#047857" stroke-width="1.4" d="M133,-1095.91C133,-1095.91 67,-1095.91 67,-1095.91 61,-1095.91 55,-1089.91 55,-1083.91 55,-1083.91 55,-1071.91 55,-1071.91 55,-1065.91 61,-1059.91 67,-1059.91 67,-1059.91 133,-1059.91 133,-1059.91 139,-1059.91 145,-1065.91 145,-1071.91 145,-1071.91 145,-1083.91 145,-1083.91 145,-1089.91 139,-1095.91 133,-1095.91"/>
<text text-anchor="middle" x="100" y="-1081.11" font-family="Helvetica,sans-Serif" font-size="11.00">HTML corpus</text>
<text text-anchor="middle" x="100" y="-1069.11" font-family="Helvetica,sans-Serif" font-size="11.00">pages/</text>
</g>
<!-- ingest -->
<g id="node15" class="node">
<title>ingest</title>
<path fill="#ecfdf5" stroke="#047857" stroke-width="1.4" d="M168,-1008.91C168,-1008.91 50,-1008.91 50,-1008.91 44,-1008.91 38,-1002.91 38,-996.91 38,-996.91 38,-984.91 38,-984.91 38,-978.91 44,-972.91 50,-972.91 50,-972.91 168,-972.91 168,-972.91 174,-972.91 180,-978.91 180,-984.91 180,-984.91 180,-996.91 180,-996.91 180,-1002.91 174,-1008.91 168,-1008.91"/>
<text text-anchor="middle" x="109" y="-994.11" font-family="Helvetica,sans-Serif" font-size="11.00">ingest + chunk</text>
<text text-anchor="middle" x="109" y="-982.11" font-family="Helvetica,sans-Serif" font-size="11.00">heading&#45;aware chunks</text>
</g>
<!-- pages&#45;&gt;ingest -->
<g id="edge15" class="edge">
<title>pages&#45;&gt;ingest</title>
<path fill="none" stroke="#047857" stroke-width="1.3" d="M101.82,-1059.71C103.11,-1047.5 104.87,-1030.9 106.32,-1017.19"/>
<polygon fill="#047857" stroke="#047857" stroke-width="1.3" points="109.12,-1017.34 107.18,-1009.09 103.55,-1016.75 109.12,-1017.34"/>
</g>
<!-- indexes -->
<g id="node16" class="node">
<title>indexes</title>
<path fill="#ecfdf5" stroke="#047857" stroke-width="1.4" d="M298.5,-921.91C298.5,-921.91 177.5,-921.91 177.5,-921.91 171.5,-921.91 165.5,-915.91 165.5,-909.91 165.5,-909.91 165.5,-897.91 165.5,-897.91 165.5,-891.91 171.5,-885.91 177.5,-885.91 177.5,-885.91 298.5,-885.91 298.5,-885.91 304.5,-885.91 310.5,-891.91 310.5,-897.91 310.5,-897.91 310.5,-909.91 310.5,-909.91 310.5,-915.91 304.5,-921.91 298.5,-921.91"/>
<text text-anchor="middle" x="238" y="-907.11" font-family="Helvetica,sans-Serif" font-size="11.00">BM25 + dense indexes</text>
<text text-anchor="middle" x="238" y="-895.11" font-family="Helvetica,sans-Serif" font-size="11.00">data/</text>
</g>
<!-- ingest&#45;&gt;indexes -->
<g id="edge16" class="edge">
<title>ingest&#45;&gt;indexes</title>
<path fill="none" stroke="#047857" stroke-width="1.3" d="M135.11,-972.71C155.3,-959.4 183.39,-940.89 205.12,-926.58"/>
<polygon fill="#047857" stroke="#047857" stroke-width="1.3" points="206.79,-928.83 211.93,-922.09 203.71,-924.15 206.79,-928.83"/>
</g>
<!-- indexes&#45;&gt;retrieve -->
<g id="edge17" class="edge">
<title>indexes&#45;&gt;retrieve</title>
<path fill="none" stroke="#047857" stroke-width="1.3" d="M262.28,-885.71C280.99,-872.46 306.98,-854.05 327.15,-839.76"/>
<polygon fill="#047857" stroke="#047857" stroke-width="1.3" points="328.84,-842 333.75,-835.09 325.61,-837.43 328.84,-842"/>
</g>
<!-- embed_model -->
<g id="node17" class="node">
<title>embed_model</title>
<path fill="#f5f3ff" stroke="#6d28d9" stroke-width="1.4" d="M315,-1095.91C315,-1095.91 189,-1095.91 189,-1095.91 183,-1095.91 177,-1089.91 177,-1083.91 177,-1083.91 177,-1071.91 177,-1071.91 177,-1065.91 183,-1059.91 189,-1059.91 189,-1059.91 315,-1059.91 315,-1059.91 321,-1059.91 327,-1065.91 327,-1071.91 327,-1071.91 327,-1083.91 327,-1083.91 327,-1089.91 321,-1095.91 315,-1095.91"/>
<text text-anchor="middle" x="252" y="-1081.11" font-family="Helvetica,sans-Serif" font-size="11.00">vLLM embedding</text>
<text text-anchor="middle" x="252" y="-1069.11" font-family="Helvetica,sans-Serif" font-size="11.00">Qwen3&#45;Embedding&#45;0.6B</text>
</g>
<!-- embed_model&#45;&gt;indexes -->
<g id="edge18" class="edge">
<title>embed_model&#45;&gt;indexes</title>
<path fill="none" stroke="#6d28d9" stroke-width="1.3" stroke-dasharray="1,5" d="M250.61,-1059.79C248.13,-1029.4 242.96,-965.88 240.07,-930.36"/>
<polygon fill="#6d28d9" stroke="#6d28d9" stroke-width="1.3" points="242.83,-929.71 239.39,-921.96 237.25,-930.16 242.83,-929.71"/>
<text text-anchor="middle" x="277.5" y="-988.41" font-family="Helvetica,sans-Serif" font-size="10.00">embeddings</text>
</g>
<!-- rerank_model -->
<g id="node18" class="node">
<title>rerank_model</title>
<path fill="#f5f3ff" stroke="#6d28d9" stroke-width="1.4" d="M900,-921.91C900,-921.91 786,-921.91 786,-921.91 780,-921.91 774,-915.91 774,-909.91 774,-909.91 774,-897.91 774,-897.91 774,-891.91 780,-885.91 786,-885.91 786,-885.91 900,-885.91 900,-885.91 906,-885.91 912,-891.91 912,-897.91 912,-897.91 912,-909.91 912,-909.91 912,-915.91 906,-921.91 900,-921.91"/>
<text text-anchor="middle" x="843" y="-907.11" font-family="Helvetica,sans-Serif" font-size="11.00">vLLM reranker</text>
<text text-anchor="middle" x="843" y="-895.11" font-family="Helvetica,sans-Serif" font-size="11.00">Qwen3&#45;Reranker&#45;0.6B</text>
</g>
<!-- rerank_model&#45;&gt;rerank -->
<g id="edge19" class="edge">
<title>rerank_model&#45;&gt;rerank</title>
<path fill="none" stroke="#6d28d9" stroke-width="1.3" stroke-dasharray="1,5" d="M829.85,-885.71C820.15,-873.04 806.86,-855.65 796.15,-841.65"/>
<polygon fill="#6d28d9" stroke="#6d28d9" stroke-width="1.3" points="798.22,-839.74 791.13,-835.09 793.77,-843.14 798.22,-839.74"/>
</g>
<!-- rerank_model&#45;&gt;merge_contexts -->
<g id="edge20" class="edge">
<title>rerank_model&#45;&gt;merge_contexts</title>
<path fill="none" stroke="#6d28d9" stroke-width="1.3" stroke-dasharray="1,5" d="M846.28,-885.88C849.62,-864.9 853.14,-828.41 844,-798.91 819.97,-721.32 745.38,-656.18 702.39,-623.83"/>
<polygon fill="#6d28d9" stroke="#6d28d9" stroke-width="1.3" points="703.87,-621.44 695.78,-618.92 700.53,-625.94 703.87,-621.44"/>
</g>
<!-- gen_model -->
<g id="node19" class="node">
<title>gen_model</title>
<path fill="#f5f3ff" stroke="#6d28d9" stroke-width="1.4" d="M803.5,-426.91C803.5,-426.91 706.5,-426.91 706.5,-426.91 700.5,-426.91 694.5,-420.91 694.5,-414.91 694.5,-414.91 694.5,-402.91 694.5,-402.91 694.5,-396.91 700.5,-390.91 706.5,-390.91 706.5,-390.91 803.5,-390.91 803.5,-390.91 809.5,-390.91 815.5,-396.91 815.5,-402.91 815.5,-402.91 815.5,-414.91 815.5,-414.91 815.5,-420.91 809.5,-426.91 803.5,-426.91"/>
<text text-anchor="middle" x="755" y="-412.11" font-family="Helvetica,sans-Serif" font-size="11.00">vLLM generator</text>
<text text-anchor="middle" x="755" y="-400.11" font-family="Helvetica,sans-Serif" font-size="11.00">Qwen3&#45;4B&#45;Instruct</text>
</g>
<!-- gen_model&#45;&gt;generate -->
<g id="edge21" class="edge">
<title>gen_model&#45;&gt;generate</title>
<path fill="none" stroke="#6d28d9" stroke-width="1.3" stroke-dasharray="1,5" d="M745.58,-390.75C735.16,-371.75 718.27,-340.97 706.45,-319.43"/>
<polygon fill="#6d28d9" stroke="#6d28d9" stroke-width="1.3" points="708.81,-317.9 702.51,-312.24 703.9,-320.6 708.81,-317.9"/>
</g>
<!-- judge_model -->
<g id="node20" class="node">
<title>judge_model</title>
<path fill="#f5f3ff" stroke="#6d28d9" stroke-width="1.4" d="M782.5,-130.46C782.5,-130.46 725.5,-130.46 725.5,-130.46 719.5,-130.46 713.5,-124.46 713.5,-118.46 713.5,-118.46 713.5,-106.46 713.5,-106.46 713.5,-100.46 719.5,-94.46 725.5,-94.46 725.5,-94.46 782.5,-94.46 782.5,-94.46 788.5,-94.46 794.5,-100.46 794.5,-106.46 794.5,-106.46 794.5,-118.46 794.5,-118.46 794.5,-124.46 788.5,-130.46 782.5,-130.46"/>
<text text-anchor="middle" x="754" y="-115.66" font-family="Helvetica,sans-Serif" font-size="11.00">vLLM judge</text>
<text text-anchor="middle" x="754" y="-103.66" font-family="Helvetica,sans-Serif" font-size="11.00">Qwen3&#45;8B</text>
</g>
<!-- judge_model&#45;&gt;eval -->
<g id="edge24" class="edge">
<title>judge_model&#45;&gt;eval</title>
<path fill="none" stroke="#6d28d9" stroke-width="1.3" stroke-dasharray="1,5" d="M741.4,-94.07C730.92,-79.6 715.89,-58.87 704.29,-42.85"/>
<polygon fill="#6d28d9" stroke="#6d28d9" stroke-width="1.3" points="706.51,-41.15 699.55,-36.31 701.97,-44.43 706.51,-41.15"/>
</g>
<!-- web_provider -->
<g id="node21" class="node">
<title>web_provider</title>
<path fill="#fff7ed" stroke="#c2410c" stroke-width="1.4" d="M770.5,-1095.91C770.5,-1095.91 587.5,-1095.91 587.5,-1095.91 581.5,-1095.91 575.5,-1089.91 575.5,-1083.91 575.5,-1083.91 575.5,-1071.91 575.5,-1071.91 575.5,-1065.91 581.5,-1059.91 587.5,-1059.91 587.5,-1059.91 770.5,-1059.91 770.5,-1059.91 776.5,-1059.91 782.5,-1065.91 782.5,-1071.91 782.5,-1071.91 782.5,-1083.91 782.5,-1083.91 782.5,-1089.91 776.5,-1095.91 770.5,-1095.91"/>
<text text-anchor="middle" x="679" y="-1081.11" font-family="Helvetica,sans-Serif" font-size="11.00">DuckDuckGo HTML</text>
<text text-anchor="middle" x="679" y="-1069.11" font-family="Helvetica,sans-Serif" font-size="11.00">configured documentation domain</text>
</g>
<!-- web_provider&#45;&gt;web_retrieve -->
<g id="edge22" class="edge">
<title>web_provider&#45;&gt;web_retrieve</title>
<path fill="none" stroke="#c2410c" stroke-width="1.3" stroke-dasharray="1,5" d="M679,-1059.66C679,-1042.48 679,-1015.38 679,-991.91 679,-991.91 679,-991.91 679,-815.91 679,-788.21 676.25,-756.56 673.98,-735.11"/>
<polygon fill="#c2410c" stroke="#c2410c" stroke-width="1.3" points="676.76,-734.79 673.1,-727.14 671.19,-735.4 676.76,-734.79"/>
</g>
</g>
</svg>
