<?xml version="1.0" encoding="UTF-8" standalone="no"?>
<!DOCTYPE svg PUBLIC "-//W3C//DTD SVG 1.1//EN"
 "http://www.w3.org/Graphics/SVG/1.1/DTD/svg11.dtd">
<!-- Generated by graphviz version 2.43.0 (0)
 -->
<!-- Title: LangGraphRagSystem Pages: 1 -->
<svg width="882pt" height="1134pt"
 viewBox="0.00 0.00 882.00 1133.91" xmlns="http://www.w3.org/2000/svg" xmlns:xlink="http://www.w3.org/1999/xlink">
<g id="graph0" class="graph" transform="scale(1 1) rotate(0) translate(4 1129.91)">
<title>LangGraphRagSystem</title>
<polygon fill="white" stroke="transparent" points="-4,4 -4,-1129.91 878,-1129.91 878,4 -4,4"/>
<text text-anchor="middle" x="437" y="-1105.91" font-family="Helvetica,sans-Serif" font-size="20.00">LangGraph RAG System: Corpus&#45;first runtime with optional web augmentation</text>
<!-- start -->
<g id="node1" class="node">
<title>start</title>
<ellipse fill="#f8fafc" stroke="#475569" stroke-width="1.4" cx="374" cy="-990.91" rx="52.99" ry="18"/>
<text text-anchor="middle" x="374" y="-988.11" font-family="Helvetica,sans-Serif" font-size="11.00">User query</text>
</g>
<!-- rewrite -->
<g id="node2" class="node">
<title>rewrite</title>
<path fill="#eef4ff" stroke="#335c9c" stroke-width="1.4" d="M431,-921.91C431,-921.91 317,-921.91 317,-921.91 311,-921.91 305,-915.91 305,-909.91 305,-909.91 305,-897.91 305,-897.91 305,-891.91 311,-885.91 317,-885.91 317,-885.91 431,-885.91 431,-885.91 437,-885.91 443,-891.91 443,-897.91 443,-897.91 443,-909.91 443,-909.91 443,-915.91 437,-921.91 431,-921.91"/>
<text text-anchor="middle" x="374" y="-907.11" font-family="Helvetica,sans-Serif" font-size="11.00">rewrite</text>
<text text-anchor="middle" x="374" y="-895.11" font-family="Helvetica,sans-Serif" font-size="11.00">ConversationRewriter</text>
</g>
<!-- start&#45;&gt;rewrite -->
<g id="edge1" class="edge">
<title>start&#45;&gt;rewrite</title>
<path fill="none" stroke="#334155" stroke-width="1.3" d="M374,-972.71C374,-960.5 374,-943.9 374,-930.19"/>
<polygon fill="#334155" stroke="#334155" stroke-width="1.3" points="376.8,-930.09 374,-922.09 371.2,-930.09 376.8,-930.09"/>
</g>
<!-- retrieve -->
<g id="node3" class="node">
<title>retrieve</title>
<path fill="#eef4ff" stroke="#335c9c" stroke-width="1.4" d="M381.5,-834.91C381.5,-834.91 258.5,-834.91 258.5,-834.91 252.5,-834.91 246.5,-828.91 246.5,-822.91 246.5,-822.91 246.5,-810.91 246.5,-810.91 246.5,-804.91 252.5,-798.91 258.5,-798.91 258.5,-798.91 381.5,-798.91 381.5,-798.91 387.5,-798.91 393.5,-804.91 393.5,-810.91 393.5,-810.91 393.5,-822.91 393.5,-822.91 393.5,-828.91 387.5,-834.91 381.5,-834.91"/>
<text text-anchor="middle" x="320" y="-820.11" font-family="Helvetica,sans-Serif" font-size="11.00">retrieve</text>
<text text-anchor="middle" x="320" y="-808.11" font-family="Helvetica,sans-Serif" font-size="11.00">Hybrid corpus retriever</text>
</g>
<!-- rewrite&#45;&gt;retrieve -->
<g id="edge2" class="edge">
<title>rewrite&#45;&gt;retrieve</title>
<path fill="none" stroke="#334155" stroke-width="1.3" d="M363.07,-885.71C355.09,-873.15 344.17,-855.96 335.32,-842.03"/>
<polygon fill="#334155" stroke="#334155" stroke-width="1.3" points="337.56,-840.34 330.91,-835.09 332.84,-843.34 337.56,-840.34"/>
</g>
<!-- rerank -->
<g id="node4" class="node">
<title>rerank</title>
<path fill="#eef4ff" stroke="#335c9c" stroke-width="1.4" d="M778,-834.91C778,-834.91 702,-834.91 702,-834.91 696,-834.91 690,-828.91 690,-822.91 690,-822.91 690,-810.91 690,-810.91 690,-804.91 696,-798.91 702,-798.91 702,-798.91 778,-798.91 778,-798.91 784,-798.91 790,-804.91 790,-810.91 790,-810.91 790,-822.91 790,-822.91 790,-828.91 784,-834.91 778,-834.91"/>
<text text-anchor="middle" x="740" y="-820.11" font-family="Helvetica,sans-Serif" font-size="11.00">rerank</text>
<text text-anchor="middle" x="740" y="-808.11" font-family="Helvetica,sans-Serif" font-size="11.00">Qwen reranker</text>
</g>
<!-- retrieve&#45;&gt;rerank -->
<g id="edge3" class="edge">
<title>retrieve&#45;&gt;rerank</title>
<path fill="none" stroke="#334155" stroke-width="1.3" d="M354.26,-834.97C374.52,-844.61 401.02,-855.49 426,-860.41 523.67,-879.67 552.96,-882.63 650,-860.41 668.78,-856.11 688.19,-847.36 704.16,-838.83"/>
<polygon fill="#334155" stroke="#334155" stroke-width="1.3" points="705.58,-841.25 711.24,-834.94 702.88,-836.34 705.58,-841.25"/>
</g>
<!-- decide_web -->
<g id="node5" class="node">
<title>decide_web</title>
<path fill="#eef4ff" stroke="#335c9c" stroke-width="1.4" d="M580,-834.91C580,-834.91 438,-834.91 438,-834.91 432,-834.91 426,-828.91 426,-822.91 426,-822.91 426,-810.91 426,-810.91 426,-804.91 432,-798.91 438,-798.91 438,-798.91 580,-798.91 580,-798.91 586,-798.91 592,-804.91 592,-810.91 592,-810.91 592,-822.91 592,-822.91 592,-828.91 586,-834.91 580,-834.91"/>
<text text-anchor="middle" x="509" y="-820.11" font-family="Helvetica,sans-Serif" font-size="11.00">decide_web</text>
<text text-anchor="middle" x="509" y="-808.11" font-family="Helvetica,sans-Serif" font-size="11.00">confidence + recency gate</text>
</g>
<!-- rerank&#45;&gt;decide_web -->
<g id="edge4" class="edge">
<title>rerank&#45;&gt;decide_web</title>
<path fill="none" stroke="#334155" stroke-width="1.3" d="M690,-816.91C660.02,-816.91 630.03,-816.91 600.05,-816.91"/>
<polygon fill="#334155" stroke="#334155" stroke-width="1.3" points="600.02,-814.11 592.02,-816.91 600.02,-819.71 600.02,-814.11"/>
</g>
<!-- web_retrieve -->
<g id="node6" class="node">
<title>web_retrieve</title>
<path fill="#fff7ed" stroke="#c2410c" stroke-width="1.4" d="M702,-726.91C702,-726.91 562,-726.91 562,-726.91 556,-726.91 550,-720.91 550,-714.91 550,-714.91 550,-702.91 550,-702.91 550,-696.91 556,-690.91 562,-690.91 562,-690.91 702,-690.91 702,-690.91 708,-690.91 714,-696.91 714,-702.91 714,-702.91 714,-714.91 714,-714.91 714,-720.91 708,-726.91 702,-726.91"/>
<text text-anchor="middle" x="632" y="-712.11" font-family="Helvetica,sans-Serif" font-size="11.00">web_retrieve</text>
<text text-anchor="middle" x="632" y="-700.11" font-family="Helvetica,sans-Serif" font-size="11.00">Autodesk&#45;only web search</text>
</g>
<!-- decide_web&#45;&gt;web_retrieve -->
<g id="edge6" class="edge">
<title>decide_web&#45;&gt;web_retrieve</title>
<path fill="none" stroke="#c2410c" stroke-width="1.3" stroke-dasharray="5,2" d="M514.64,-798.78C520.02,-784.67 529.34,-764.94 543,-751.91 551.93,-743.4 562.89,-736.35 574.04,-730.61"/>
<polygon fill="#c2410c" stroke="#c2410c" stroke-width="1.3" points="575.42,-733.06 581.38,-727.03 572.96,-728.02 575.42,-733.06"/>
<text text-anchor="middle" x="579.5" y="-765.91" font-family="Helvetica,sans-Serif" font-size="10.00">recency or</text>
<text text-anchor="middle" x="579.5" y="-754.91" font-family="Helvetica,sans-Serif" font-size="10.00">low confidence</text>
</g>
<!-- finalize -->
<g id="node8" class="node">
<title>finalize</title>
<path fill="#eef4ff" stroke="#335c9c" stroke-width="1.4" d="M554.5,-531.91C554.5,-531.91 467.5,-531.91 467.5,-531.91 461.5,-531.91 455.5,-525.91 455.5,-519.91 455.5,-519.91 455.5,-507.91 455.5,-507.91 455.5,-501.91 461.5,-495.91 467.5,-495.91 467.5,-495.91 554.5,-495.91 554.5,-495.91 560.5,-495.91 566.5,-501.91 566.5,-507.91 566.5,-507.91 566.5,-519.91 566.5,-519.91 566.5,-525.91 560.5,-531.91 554.5,-531.91"/>
<text text-anchor="middle" x="511" y="-511.11" font-family="Helvetica,sans-Serif" font-size="11.00">finalize_contexts</text>
</g>
<!-- decide_web&#45;&gt;finalize -->
<g id="edge5" class="edge">
<title>decide_web&#45;&gt;finalize</title>
<path fill="none" stroke="#334155" stroke-width="1.3" d="M509.11,-798.87C509.45,-748.49 510.43,-600.08 510.83,-540.3"/>
<polygon fill="#334155" stroke="#334155" stroke-width="1.3" points="513.63,-540.16 510.89,-532.14 508.03,-540.12 513.63,-540.16"/>
<text text-anchor="middle" x="551.5" y="-657.91" font-family="Helvetica,sans-Serif" font-size="10.00">corpus confident</text>
<text text-anchor="middle" x="551.5" y="-646.91" font-family="Helvetica,sans-Serif" font-size="10.00">or web off</text>
</g>
<!-- merge_contexts -->
<g id="node7" class="node">
<title>merge_contexts</title>
<path fill="#fff7ed" stroke="#c2410c" stroke-width="1.4" d="M700,-618.91C700,-618.91 564,-618.91 564,-618.91 558,-618.91 552,-612.91 552,-606.91 552,-606.91 552,-594.91 552,-594.91 552,-588.91 558,-582.91 564,-582.91 564,-582.91 700,-582.91 700,-582.91 706,-582.91 712,-588.91 712,-594.91 712,-594.91 712,-606.91 712,-606.91 712,-612.91 706,-618.91 700,-618.91"/>
<text text-anchor="middle" x="632" y="-604.11" font-family="Helvetica,sans-Serif" font-size="11.00">merge_contexts</text>
<text text-anchor="middle" x="632" y="-592.11" font-family="Helvetica,sans-Serif" font-size="11.00">corpus + web final rerank</text>
</g>
<!-- web_retrieve&#45;&gt;merge_contexts -->
<g id="edge7" class="edge">
<title>web_retrieve&#45;&gt;merge_contexts</title>
<path fill="none" stroke="#c2410c" stroke-width="1.3" stroke-dasharray="5,2" d="M632,-690.88C632,-673.75 632,-647.13 632,-627.47"/>
<polygon fill="#c2410c" stroke="#c2410c" stroke-width="1.3" points="634.8,-627.25 632,-619.25 629.2,-627.25 634.8,-627.25"/>
</g>
<!-- merge_contexts&#45;&gt;finalize -->
<g id="edge8" class="edge">
<title>merge_contexts&#45;&gt;finalize</title>
<path fill="none" stroke="#c2410c" stroke-width="1.3" stroke-dasharray="5,2" d="M607.51,-582.71C588.65,-569.46 562.45,-551.05 542.11,-536.76"/>
<polygon fill="#c2410c" stroke="#c2410c" stroke-width="1.3" points="543.61,-534.39 535.45,-532.09 540.39,-538.98 543.61,-534.39"/>
</g>
<!-- abstain_gate -->
<g id="node9" class="node">
<title>abstain_gate</title>
<path fill="#fefce8" stroke="#a16207" stroke-width="1.4" d="M499.57,-441.27C499.57,-441.27 409.43,-412.55 409.43,-412.55 403.72,-410.73 403.72,-407.09 409.43,-405.27 409.43,-405.27 499.57,-376.55 499.57,-376.55 505.28,-374.73 516.72,-374.73 522.43,-376.55 522.43,-376.55 612.57,-405.27 612.57,-405.27 618.28,-407.09 618.28,-410.73 612.57,-412.55 612.57,-412.55 522.43,-441.27 522.43,-441.27 516.72,-443.09 505.28,-443.09 499.57,-441.27"/>
<text text-anchor="middle" x="511" y="-412.11" font-family="Helvetica,sans-Serif" font-size="11.00">abstain_gate</text>
<text text-anchor="middle" x="511" y="-400.11" font-family="Helvetica,sans-Serif" font-size="11.00">confidence check</text>
</g>
<!-- finalize&#45;&gt;abstain_gate -->
<g id="edge9" class="edge">
<title>finalize&#45;&gt;abstain_gate</title>
<path fill="none" stroke="#334155" stroke-width="1.3" d="M511,-495.9C511,-484.33 511,-468.46 511,-453.51"/>
<polygon fill="#334155" stroke="#334155" stroke-width="1.3" points="513.8,-453.32 511,-445.32 508.2,-453.32 513.8,-453.32"/>
</g>
<!-- abstain -->
<g id="node10" class="node">
<title>abstain</title>
<path fill="#eef4ff" stroke="#335c9c" stroke-width="1.4" d="M556.5,-311.91C556.5,-311.91 465.5,-311.91 465.5,-311.91 459.5,-311.91 453.5,-305.91 453.5,-299.91 453.5,-299.91 453.5,-287.91 453.5,-287.91 453.5,-281.91 459.5,-275.91 465.5,-275.91 465.5,-275.91 556.5,-275.91 556.5,-275.91 562.5,-275.91 568.5,-281.91 568.5,-287.91 568.5,-287.91 568.5,-299.91 568.5,-299.91 568.5,-305.91 562.5,-311.91 556.5,-311.91"/>
<text text-anchor="middle" x="511" y="-291.11" font-family="Helvetica,sans-Serif" font-size="11.00">abstain_response</text>
</g>
<!-- abstain_gate&#45;&gt;abstain -->
<g id="edge11" class="edge">
<title>abstain_gate&#45;&gt;abstain</title>
<path fill="none" stroke="#334155" stroke-width="1.3" stroke-dasharray="1,5" d="M511,-372.78C511,-355.72 511,-335.62 511,-320.11"/>
<polygon fill="#334155" stroke="#334155" stroke-width="1.3" points="513.8,-320.02 511,-312.02 508.2,-320.02 513.8,-320.02"/>
<text text-anchor="middle" x="529.5" y="-339.91" font-family="Helvetica,sans-Serif" font-size="10.00">abstain</text>
</g>
<!-- generate -->
<g id="node11" class="node">
<title>generate</title>
<path fill="#eef4ff" stroke="#335c9c" stroke-width="1.4" d="M697,-311.91C697,-311.91 613,-311.91 613,-311.91 607,-311.91 601,-305.91 601,-299.91 601,-299.91 601,-287.91 601,-287.91 601,-281.91 607,-275.91 613,-275.91 613,-275.91 697,-275.91 697,-275.91 703,-275.91 709,-281.91 709,-287.91 709,-287.91 709,-299.91 709,-299.91 709,-305.91 703,-311.91 697,-311.91"/>
<text text-anchor="middle" x="655" y="-297.11" font-family="Helvetica,sans-Serif" font-size="11.00">generate</text>
<text text-anchor="middle" x="655" y="-285.11" font-family="Helvetica,sans-Serif" font-size="11.00">Qwen generator</text>
</g>
<!-- abstain_gate&#45;&gt;generate -->
<g id="edge10" class="edge">
<title>abstain_gate&#45;&gt;generate</title>
<path fill="none" stroke="#334155" stroke-width="1.3" d="M542.96,-382.83C567.95,-363.22 602.38,-336.2 626.46,-317.31"/>
<polygon fill="#334155" stroke="#334155" stroke-width="1.3" points="628.39,-319.35 632.96,-312.21 624.94,-314.94 628.39,-319.35"/>
<text text-anchor="middle" x="619" y="-339.91" font-family="Helvetica,sans-Serif" font-size="10.00">answer</text>
</g>
<!-- ground -->
<g id="node12" class="node">
<title>ground</title>
<path fill="#eef4ff" stroke="#335c9c" stroke-width="1.4" d="M624,-224.91C624,-224.91 540,-224.91 540,-224.91 534,-224.91 528,-218.91 528,-212.91 528,-212.91 528,-200.91 528,-200.91 528,-194.91 534,-188.91 540,-188.91 540,-188.91 624,-188.91 624,-188.91 630,-188.91 636,-194.91 636,-200.91 636,-200.91 636,-212.91 636,-212.91 636,-218.91 630,-224.91 624,-224.91"/>
<text text-anchor="middle" x="582" y="-210.11" font-family="Helvetica,sans-Serif" font-size="11.00">ground</text>
<text text-anchor="middle" x="582" y="-198.11" font-family="Helvetica,sans-Serif" font-size="11.00">GroundingGuard</text>
</g>
<!-- abstain&#45;&gt;ground -->
<g id="edge14" class="edge">
<title>abstain&#45;&gt;ground</title>
<path fill="none" stroke="#334155" stroke-width="1.3" d="M525.37,-275.71C536.05,-262.92 550.75,-245.33 562.49,-231.27"/>
<polygon fill="#334155" stroke="#334155" stroke-width="1.3" points="564.67,-233.02 567.65,-225.09 560.38,-229.43 564.67,-233.02"/>
</g>
<!-- generate&#45;&gt;ground -->
<g id="edge12" class="edge">
<title>generate&#45;&gt;ground</title>
<path fill="none" stroke="#334155" stroke-width="1.3" d="M640.23,-275.71C629.24,-262.92 614.13,-245.33 602.06,-231.27"/>
<polygon fill="#334155" stroke="#334155" stroke-width="1.3" points="604.09,-229.33 596.75,-225.09 599.84,-232.98 604.09,-229.33"/>
</g>
<!-- answer -->
<g id="node13" class="node">
<title>answer</title>
<ellipse fill="#f8fafc" stroke="#475569" stroke-width="1.4" cx="582" cy="-112.46" rx="61.54" ry="25.41"/>
<text text-anchor="middle" x="582" y="-115.66" font-family="Helvetica,sans-Serif" font-size="11.00">Final answer</text>
<text text-anchor="middle" x="582" y="-103.66" font-family="Helvetica,sans-Serif" font-size="11.00">+ citations</text>
</g>
<!-- ground&#45;&gt;answer -->
<g id="edge13" class="edge">
<title>ground&#45;&gt;answer</title>
<path fill="none" stroke="#334155" stroke-width="1.3" d="M582,-188.52C582,-176.63 582,-160.49 582,-146.23"/>
<polygon fill="#334155" stroke="#334155" stroke-width="1.3" points="584.8,-146.1 582,-138.1 579.2,-146.1 584.8,-146.1"/>
</g>
<!-- eval -->
<g id="node22" class="node">
<title>eval</title>
<path fill="#f1f5f9" stroke="#475569" stroke-width="1.4" d="M734,-36C734,-36 564,-36 564,-36 558,-36 552,-30 552,-24 552,-24 552,-12 552,-12 552,-6 558,0 564,0 564,0 734,0 734,0 740,0 746,-6 746,-12 746,-12 746,-24 746,-24 746,-30 740,-36 734,-36"/>
<text text-anchor="middle" x="649" y="-21.2" font-family="Helvetica,sans-Serif" font-size="11.00">eval/run_eval.py</text>
<text text-anchor="middle" x="649" y="-9.2" font-family="Helvetica,sans-Serif" font-size="11.00">corpus_only vs web_augmented</text>
</g>
<!-- answer&#45;&gt;eval -->
<g id="edge23" class="edge">
<title>answer&#45;&gt;eval</title>
<path fill="none" stroke="#64748b" stroke-width="1.3" stroke-dasharray="1,5" d="M599.25,-87.65C609.23,-73.89 621.73,-56.63 631.71,-42.86"/>
<polygon fill="#64748b" stroke="#64748b" stroke-width="1.3" points="634.24,-44.14 636.67,-36.02 629.71,-40.85 634.24,-44.14"/>
</g>
<!-- pages -->
<g id="node14" class="node">
<title>pages</title>
<path fill="#ecfdf5" stroke="#047857" stroke-width="1.4" d="M95,-1095.91C95,-1095.91 29,-1095.91 29,-1095.91 23,-1095.91 17,-1089.91 17,-1083.91 17,-1083.91 17,-1071.91 17,-1071.91 17,-1065.91 23,-1059.91 29,-1059.91 29,-1059.91 95,-1059.91 95,-1059.91 101,-1059.91 107,-1065.91 107,-1071.91 107,-1071.91 107,-1083.91 107,-1083.91 107,-1089.91 101,-1095.91 95,-1095.91"/>
<text text-anchor="middle" x="62" y="-1081.11" font-family="Helvetica,sans-Serif" font-size="11.00">HTML corpus</text>
<text text-anchor="middle" x="62" y="-1069.11" font-family="Helvetica,sans-Serif" font-size="11.00">pages/</text>
</g>
<!-- ingest -->
<g id="node15" class="node">
<title>ingest</title>
<path fill="#ecfdf5" stroke="#047857" stroke-width="1.4" d="M130,-1008.91C130,-1008.91 12,-1008.91 12,-1008.91 6,-1008.91 0,-1002.91 0,-996.91 0,-996.91 0,-984.91 0,-984.91 0,-978.91 6,-972.91 12,-972.91 12,-972.91 130,-972.91 130,-972.91 136,-972.91 142,-978.91 142,-984.91 142,-984.91 142,-996.91 142,-996.91 142,-1002.91 136,-1008.91 130,-1008.91"/>
<text text-anchor="middle" x="71" y="-994.11" font-family="Helvetica,sans-Serif" font-size="11.00">ingest + chunk</text>
<text text-anchor="middle" x="71" y="-982.11" font-family="Helvetica,sans-Serif" font-size="11.00">heading&#45;aware chunks</text>
</g>
<!-- pages&#45;&gt;ingest -->
<g id="edge15" class="edge">
<title>pages&#45;&gt;ingest</title>
<path fill="none" stroke="#047857" stroke-width="1.3" d="M63.82,-1059.71C65.11,-1047.5 66.87,-1030.9 68.32,-1017.19"/>
<polygon fill="#047857" stroke="#047857" stroke-width="1.3" points="71.12,-1017.34 69.18,-1009.09 65.55,-1016.75 71.12,-1017.34"/>
</g>
<!-- indexes -->
<g id="node16" class="node">
<title>indexes</title>
<path fill="#ecfdf5" stroke="#047857" stroke-width="1.4" d="M260.5,-921.91C260.5,-921.91 139.5,-921.91 139.5,-921.91 133.5,-921.91 127.5,-915.91 127.5,-909.91 127.5,-909.91 127.5,-897.91 127.5,-897.91 127.5,-891.91 133.5,-885.91 139.5,-885.91 139.5,-885.91 260.5,-885.91 260.5,-885.91 266.5,-885.91 272.5,-891.91 272.5,-897.91 272.5,-897.91 272.5,-909.91 272.5,-909.91 272.5,-915.91 266.5,-921.91 260.5,-921.91"/>
<text text-anchor="middle" x="200" y="-907.11" font-family="Helvetica,sans-Serif" font-size="11.00">BM25 + dense indexes</text>
<text text-anchor="middle" x="200" y="-895.11" font-family="Helvetica,sans-Serif" font-size="11.00">data/</text>
</g>
<!-- ingest&#45;&gt;indexes -->
<g id="edge16" class="edge">
<title>ingest&#45;&gt;indexes</title>
<path fill="none" stroke="#047857" stroke-width="1.3" d="M97.11,-972.71C117.3,-959.4 145.39,-940.89 167.12,-926.58"/>
<polygon fill="#047857" stroke="#047857" stroke-width="1.3" points="168.79,-928.83 173.93,-922.09 165.71,-924.15 168.79,-928.83"/>
</g>
<!-- indexes&#45;&gt;retrieve -->
<g id="edge17" class="edge">
<title>indexes&#45;&gt;retrieve</title>
<path fill="none" stroke="#047857" stroke-width="1.3" d="M224.28,-885.71C242.99,-872.46 268.98,-854.05 289.15,-839.76"/>
<polygon fill="#047857" stroke="#047857" stroke-width="1.3" points="290.84,-842 295.75,-835.09 287.61,-837.43 290.84,-842"/>
</g>
<!-- embed_model -->
<g id="node17" class="node">
<title>embed_model</title>
<path fill="#f5f3ff" stroke="#6d28d9" stroke-width="1.4" d="M277,-1095.91C277,-1095.91 151,-1095.91 151,-1095.91 145,-1095.91 139,-1089.91 139,-1083.91 139,-1083.91 139,-1071.91 139,-1071.91 139,-1065.91 145,-1059.91 151,-1059.91 151,-1059.91 277,-1059.91 277,-1059.91 283,-1059.91 289,-1065.91 289,-1071.91 289,-1071.91 289,-1083.91 289,-1083.91 289,-1089.91 283,-1095.91 277,-1095.91"/>
<text text-anchor="middle" x="214" y="-1081.11" font-family="Helvetica,sans-Serif" font-size="11.00">vLLM embedding</text>
<text text-anchor="middle" x="214" y="-1069.11" font-family="Helvetica,sans-Serif" font-size="11.00">Qwen3&#45;Embedding&#45;0.6B</text>
</g>
<!-- embed_model&#45;&gt;indexes -->
<g id="edge18" class="edge">
<title>embed_model&#45;&gt;indexes</title>
<path fill="none" stroke="#6d28d9" stroke-width="1.3" stroke-dasharray="1,5" d="M212.61,-1059.79C210.13,-1029.4 204.96,-965.88 202.07,-930.36"/>
<polygon fill="#6d28d9" stroke="#6d28d9" stroke-width="1.3" points="204.83,-929.71 201.39,-921.96 199.25,-930.16 204.83,-929.71"/>
<text text-anchor="middle" x="239.5" y="-988.41" font-family="Helvetica,sans-Serif" font-size="10.00">embeddings</text>
</g>
<!-- rerank_model -->
<g id="node18" class="node">
<title>rerank_model</title>
<path fill="#f5f3ff" stroke="#6d28d9" stroke-width="1.4" d="M862,-921.91C862,-921.91 748,-921.91 748,-921.91 742,-921.91 736,-915.91 736,-909.91 736,-909.91 736,-897.91 736,-897.91 736,-891.91 742,-885.91 748,-885.91 748,-885.91 862,-885.91 862,-885.91 868,-885.91 874,-891.91 874,-897.91 874,-897.91 874,-909.91 874,-909.91 874,-915.91 868,-921.91 862,-921.91"/>
<text text-anchor="middle" x="805" y="-907.11" font-family="Helvetica,sans-Serif" font-size="11.00">vLLM reranker</text>
<text text-anchor="middle" x="805" y="-895.11" font-family="Helvetica,sans-Serif" font-size="11.00">Qwen3&#45;Reranker&#45;0.6B</text>
</g>
<!-- rerank_model&#45;&gt;rerank -->
<g id="edge19" class="edge">
<title>rerank_model&#45;&gt;rerank</title>
<path fill="none" stroke="#6d28d9" stroke-width="1.3" stroke-dasharray="1,5" d="M791.85,-885.71C782.15,-873.04 768.86,-855.65 758.15,-841.65"/>
<polygon fill="#6d28d9" stroke="#6d28d9" stroke-width="1.3" points="760.22,-839.74 753.13,-835.09 755.77,-843.14 760.22,-839.74"/>
</g>
<!-- rerank_model&#45;&gt;merge_contexts -->
<g id="edge20" class="edge">
<title>rerank_model&#45;&gt;merge_contexts</title>
<path fill="none" stroke="#6d28d9" stroke-width="1.3" stroke-dasharray="1,5" d="M808.34,-885.86C811.74,-864.86 815.32,-828.35 806,-798.91 781.42,-721.28 706.56,-656.15 663.46,-623.82"/>
<polygon fill="#6d28d9" stroke="#6d28d9" stroke-width="1.3" points="664.92,-621.42 656.83,-618.91 661.6,-625.92 664.92,-621.42"/>
</g>
<!-- gen_model -->
<g id="node19" class="node">
<title>gen_model</title>
<path fill="#f5f3ff" stroke="#6d28d9" stroke-width="1.4" d="M765.5,-426.91C765.5,-426.91 668.5,-426.91 668.5,-426.91 662.5,-426.91 656.5,-420.91 656.5,-414.91 656.5,-414.91 656.5,-402.91 656.5,-402.91 656.5,-396.91 662.5,-390.91 668.5,-390.91 668.5,-390.91 765.5,-390.91 765.5,-390.91 771.5,-390.91 777.5,-396.91 777.5,-402.91 777.5,-402.91 777.5,-414.91 777.5,-414.91 777.5,-420.91 771.5,-426.91 765.5,-426.91"/>
<text text-anchor="middle" x="717" y="-412.11" font-family="Helvetica,sans-Serif" font-size="11.00">vLLM generator</text>
<text text-anchor="middle" x="717" y="-400.11" font-family="Helvetica,sans-Serif" font-size="11.00">Qwen3&#45;4B&#45;Instruct</text>
</g>
<!-- gen_model&#45;&gt;generate -->
<g id="edge21" class="edge">
<title>gen_model&#45;&gt;generate</title>
<path fill="none" stroke="#6d28d9" stroke-width="1.3" stroke-dasharray="1,5" d="M707.58,-390.75C697.16,-371.75 680.27,-340.97 668.45,-319.43"/>
<polygon fill="#6d28d9" stroke="#6d28d9" stroke-width="1.3" points="670.81,-317.9 664.51,-312.24 665.9,-320.6 670.81,-317.9"/>
</g>
<!-- judge_model -->
<g id="node20" class="node">
<title>judge_model</title>
<path fill="#f5f3ff" stroke="#6d28d9" stroke-width="1.4" d="M744.5,-130.46C744.5,-130.46 687.5,-130.46 687.5,-130.46 681.5,-130.46 675.5,-124.46 675.5,-118.46 675.5,-118.46 675.5,-106.46 675.5,-106.46 675.5,-100.46 681.5,-94.46 687.5,-94.46 687.5,-94.46 744.5,-94.46 744.5,-94.46 750.5,-94.46 756.5,-100.46 756.5,-106.46 756.5,-106.46 756.5,-118.46 756.5,-118.46 756.5,-124.46 750.5,-130.46 744.5,-130.46"/>
<text text-anchor="middle" x="716" y="-115.66" font-family="Helvetica,sans-Serif" font-size="11.00">vLLM judge</text>
<text text-anchor="middle" x="716" y="-103.66" font-family="Helvetica,sans-Serif" font-size="11.00">Qwen3&#45;8B</text>
</g>
<!-- judge_model&#45;&gt;eval -->
<g id="edge24" class="edge">
<title>judge_model&#45;&gt;eval</title>
<path fill="none" stroke="#6d28d9" stroke-width="1.3" stroke-dasharray="1,5" d="M703.4,-94.07C692.92,-79.6 677.89,-58.87 666.29,-42.85"/>
<polygon fill="#6d28d9" stroke="#6d28d9" stroke-width="1.3" points="668.51,-41.15 661.55,-36.31 663.97,-44.43 668.51,-41.15"/>
</g>
<!-- web_provider -->
<g id="node21" class="node">
<title>web_provider</title>
<path fill="#fff7ed" stroke="#c2410c" stroke-width="1.4" d="M724,-1095.91C724,-1095.91 558,-1095.91 558,-1095.91 552,-1095.91 546,-1089.91 546,-1083.91 546,-1083.91 546,-1071.91 546,-1071.91 546,-1065.91 552,-1059.91 558,-1059.91 558,-1059.91 724,-1059.91 724,-1059.91 730,-1059.91 736,-1065.91 736,-1071.91 736,-1071.91 736,-1083.91 736,-1083.91 736,-1089.91 730,-1095.91 724,-1095.91"/>
<text text-anchor="middle" x="641" y="-1081.11" font-family="Helvetica,sans-Serif" font-size="11.00">DuckDuckGo HTML</text>
<text text-anchor="middle" x="641" y="-1069.11" font-family="Helvetica,sans-Serif" font-size="11.00">allowed domain: autodesk.com</text>
</g>
<!-- web_provider&#45;&gt;web_retrieve -->
<g id="edge22" class="edge">
<title>web_provider&#45;&gt;web_retrieve</title>
<path fill="none" stroke="#c2410c" stroke-width="1.3" stroke-dasharray="1,5" d="M641,-1059.66C641,-1042.48 641,-1015.38 641,-991.91 641,-991.91 641,-991.91 641,-815.91 641,-788.19 637.91,-756.54 635.35,-735.1"/>
<polygon fill="#c2410c" stroke="#c2410c" stroke-width="1.3" points="638.12,-734.73 634.36,-727.13 632.56,-735.41 638.12,-734.73"/>
</g>
</g>
</svg>
